<?xml version="1.0" standalone="no"?>
<!DOCTYPE svg PUBLIC "-//W3C//DTD SVG 20010904//EN"
 "http://www.w3.org/TR/2001/REC-SVG-20010904/DTD/svg10.dtd">
<svg version="1.0" xmlns="http://www.w3.org/2000/svg"
 width="1066.000000pt" height="1046.000000pt" viewBox="0 0 1066.000000 1046.000000"
 preserveAspectRatio="xMidYMid meet">

<g transform="translate(0.000000,1046.000000) scale(0.100000,-0.100000)"
fill="#000000" stroke="none">
<path d="M370 9030 l0 -1130 55 0 55 0 0 1080 0 1080 4820 0 4820 0 0 -1080 0
-1080 55 0 55 0 0 1130 0 1130 -4930 0 -4930 0 0 -1130z"/>
<path d="M4712 7528 c-146 -141 -223 -199 -351 -263 -128 -65 -252 -94 -436
-103 -82 -4 -183 -4 -223 0 -133 14 -518 117 -815 217 l-118 40 -19 -43 c-64
-149 -132 -423 -150 -601 -18 -173 5 -354 59 -466 26 -54 26 -56 -3 -63 -39
-10 -45 -48 -40 -243 3 -98 7 -187 9 -199 9 -43 20 -44 775 -44 l720 0 0 90
c0 151 16 155 326 84 487 -111 834 -180 1064 -210 264 -35 682 7 1215 122 343
74 1215 296 1248 318 31 21 32 24 29 82 -5 76 -21 102 -71 110 -37 6 -40 9
-46 48 -16 101 -33 134 -108 197 -146 124 -247 156 -530 170 -108 5 -242 15
-297 22 -91 12 -118 9 -90 -8 14 -9 3 -45 -24 -73 -119 -132 -752 -228 -1244
-188 -271 22 -398 2 -505 -79 -47 -36 -95 -104 -121 -170 -23 -58 -46 -164
-46 -211 0 -22 -2 -43 -5 -46 -4 -3 -33 2 -65 10 -59 16 -60 17 -60 52 0 96
22 265 41 314 26 72 96 148 162 179 100 47 143 52 417 49 365 -4 551 25 714
111 97 51 190 165 173 210 -3 8 -27 19 -54 26 -26 6 -96 26 -155 42 -97 28
-108 34 -117 60 -8 24 -16 29 -42 29 -34 0 -109 52 -109 76 0 7 -12 16 -27 20
-48 10 -77 28 -125 77 -26 26 -54 47 -64 47 -28 0 -103 53 -109 77 -4 18 -12
23 -35 23 -35 0 -110 44 -110 64 0 15 -37 32 -47 22 -7 -7 -123 55 -123 66 0
16 -34 38 -51 33 -10 -4 -52 5 -93 19 -48 17 -96 26 -136 26 l-61 0 -127 -122z
m316 -198 c103 -19 208 -69 376 -181 92 -60 188 -128 212 -151 49 -45 90 -105
79 -116 -9 -10 -307 -9 -510 2 -145 7 -180 6 -235 -8 -276 -70 -421 -284 -446
-660 l-7 -98 -36 6 c-126 23 -304 46 -348 46 l-52 0 -6 58 c-36 339 -120 529
-260 582 -17 6 -169 34 -340 61 -455 72 -478 77 -530 110 -25 16 -54 43 -65
61 -18 30 -27 88 -15 100 3 2 53 -8 112 -24 345 -90 635 -137 903 -145 285 -8
419 13 587 92 100 47 150 79 263 168 122 97 199 120 318 97z m1135 -396 c43
-11 67 -21 67 -31 0 -24 -88 -101 -153 -133 -152 -74 -384 -106 -702 -95 -164
6 -214 4 -275 -9 -248 -53 -358 -212 -360 -520 0 -87 0 -88 -22 -82 -13 3 -56
13 -97 23 l-73 17 7 91 c23 317 117 499 304 589 112 53 175 61 375 46 239 -18
534 -9 640 19 86 23 159 61 179 92 6 10 19 17 27 14 8 -2 45 -12 83 -21z"/>
<path d="M6096 6903 c-4 -9 0 -23 9 -32 13 -14 17 -14 31 1 9 9 14 24 11 32
-8 21 -43 20 -51 -1z"/>
<path d="M6014 6835 c-4 -9 -2 -21 4 -27 16 -16 47 -5 47 17 0 26 -42 34 -51
10z"/>
<path d="M5907 6797 c-8 -21 8 -39 29 -35 27 5 25 42 -2 46 -12 2 -24 -3 -27
-11z"/>
<path d="M5793 6783 c-18 -7 -16 -42 2 -49 24 -10 47 14 34 37 -10 19 -15 21
-36 12z"/>
<path d="M5094 6765 c-4 -9 -2 -21 4 -27 16 -16 47 -5 47 17 0 26 -42 34 -51
10z"/>
<path d="M5234 6765 c-8 -19 3 -35 26 -35 19 0 30 17 23 38 -6 17 -42 15 -49
-3z"/>
<path d="M5380 6745 c0 -22 4 -26 23 -23 14 2 22 10 22 23 0 13 -8 21 -22 23
-19 3 -23 -1 -23 -23z"/>
<path d="M5520 6755 c-10 -12 -10 -18 0 -30 16 -19 39 -19 46 0 6 15 -11 45
-26 45 -4 0 -13 -7 -20 -15z"/>
<path d="M5663 6763 c-18 -7 -16 -42 3 -50 8 -3 23 1 31 10 13 13 14 19 3 31
-13 17 -17 18 -37 9z"/>
<path d="M4960 6744 c-11 -12 -10 -18 3 -32 16 -15 18 -15 33 0 19 18 12 48
-9 48 -8 0 -20 -7 -27 -16z"/>
<path d="M4834 6685 c-8 -20 4 -35 27 -35 14 0 19 7 19 25 0 18 -5 25 -20 25
-11 0 -23 -7 -26 -15z"/>
<path d="M4741 6600 c-19 -11 -9 -45 14 -45 13 0 21 8 23 21 3 23 -17 37 -37
24z"/>
<path d="M4681 6480 c-19 -11 -9 -45 14 -45 13 0 21 8 23 21 3 23 -17 37 -37
24z"/>
<path d="M4644 6346 c-9 -24 4 -48 23 -44 12 2 18 12 18 28 0 29 -32 41 -41
16z"/>
<path d="M4637 6215 c-20 -19 -12 -45 14 -45 26 0 36 28 17 46 -13 14 -17 14
-31 -1z"/>
<path d="M409 5405 c-54 -29 -41 -70 26 -85 54 -13 9676 -13 9730 0 68 15 80
57 24 85 -42 22 -9740 22 -9780 0z"/>
<path d="M1515 5006 c-150 -36 -232 -123 -279 -293 -23 -85 -35 -275 -25 -410
26 -351 155 -483 474 -483 94 0 197 20 254 49 99 51 169 168 197 331 21 123
15 402 -11 500 -48 179 -141 276 -293 309 -69 14 -253 13 -317 -3z m315 -189
c55 -28 94 -93 109 -183 14 -79 14 -354 0 -430 -14 -76 -54 -149 -95 -175 -71
-44 -265 -41 -335 5 -75 50 -100 145 -100 386 0 303 38 389 184 420 68 15 186
3 237 -23z"/>
<path d="M4520 5009 c-159 -31 -279 -161 -327 -355 -23 -95 -24 -359 0 -463
48 -216 168 -337 357 -360 67 -9 262 0 302 13 7 3 32 10 56 16 l42 11 0 68 0
69 -147 -5 c-243 -9 -317 20 -380 147 -42 84 -57 183 -50 330 8 184 52 278
153 330 47 24 56 25 231 25 l183 0 0 67 0 66 -47 16 c-101 32 -276 44 -373 25z"/>
<path d="M400 4420 l0 -580 335 0 335 0 0 90 0 90 -240 0 -240 0 0 490 0 490
-95 0 -95 0 0 -580z"/>
<path d="M2400 4420 l0 -580 95 0 95 0 2 493 c2 396 5 485 15 457 6 -19 55
-169 108 -332 l96 -298 144 0 144 0 76 238 c42 130 88 275 103 322 14 47 30
89 34 94 4 6 8 -211 8 -482 l0 -492 95 0 95 0 0 580 0 580 -166 -2 -166 -3
-94 -295 c-52 -162 -101 -319 -110 -348 -9 -30 -19 -51 -22 -47 -4 4 -54 160
-112 348 l-105 342 -168 3 -167 2 0 -580z"/>
<path d="M5182 4423 l3 -578 93 -3 92 -3 0 251 0 250 255 0 255 0 0 -250 0
-250 95 0 95 0 0 580 0 580 -95 0 -95 0 0 -240 0 -240 -252 2 -253 3 -3 238
-2 237 -95 0 -95 0 2 -577z"/>
<path d="M6601 4978 c-24 -64 -361 -1115 -361 -1125 0 -10 27 -13 99 -13 l100
0 25 83 c14 45 35 117 47 160 l23 77 200 -2 199 -3 23 -70 c13 -38 35 -109 50
-157 l26 -88 105 0 c86 0 104 3 101 14 -2 8 -86 269 -188 580 l-185 565 -128
1 c-123 0 -128 -1 -136 -22z m204 -389 c36 -123 68 -232 71 -241 5 -17 -6 -18
-140 -18 -80 0 -146 4 -146 8 0 8 124 439 136 471 2 8 7 12 9 9 3 -3 34 -106
70 -229z"/>
<path d="M8192 4693 c-204 -626 -272 -839 -272 -846 0 -4 46 -6 102 -5 l102 3
47 155 46 155 200 3 199 2 50 -157 49 -158 103 -3 c74 -2 102 1 102 9 0 7 -75
240 -166 518 -91 278 -174 534 -185 569 l-21 62 -128 0 -128 0 -100 -307z
m302 -118 c36 -126 66 -233 66 -237 0 -5 -66 -8 -146 -8 -134 0 -145 1 -140
18 15 47 136 466 136 471 0 3 4 1 9 -4 4 -6 38 -113 75 -240z"/>
<path d="M9090 4420 l0 -580 95 0 95 0 0 492 c0 270 3 488 6 485 6 -6 43 -117
175 -530 l41 -128 146 3 146 3 103 324 c56 178 105 326 108 329 3 3 5 -216 5
-486 l0 -492 95 0 95 0 0 580 0 580 -164 0 -165 0 -56 -177 c-31 -98 -82 -256
-112 -352 -30 -96 -59 -168 -63 -162 -4 7 -54 165 -111 351 l-104 340 -167 0
-168 0 0 -580z"/>
<path d="M7310 4320 l0 -90 270 0 270 0 0 90 0 90 -270 0 -270 0 0 -90z"/>
<path d="M930 3240 l0 -290 25 0 25 0 0 169 0 170 28 21 c21 17 36 21 71 17
73 -8 76 -15 79 -207 3 -160 4 -170 23 -170 18 0 19 9 19 173 0 140 -3 177
-16 195 -37 53 -130 69 -178 31 l-26 -20 0 100 0 101 -25 0 -25 0 0 -290z"/>
<path d="M4140 3430 l0 -99 -35 21 c-27 15 -47 19 -81 15 -87 -9 -114 -59
-113 -209 0 -118 12 -163 51 -191 39 -29 114 -28 156 1 31 23 31 23 42 2 26
-49 30 -13 30 270 l0 290 -25 0 c-25 0 -25 0 -25 -100z m-25 -125 c24 -23 25
-30 25 -146 0 -112 -2 -125 -22 -146 -30 -32 -108 -33 -138 -1 -18 19 -20 35
-20 145 0 118 1 125 25 148 34 35 96 35 130 0z"/>
<path d="M6810 3240 c0 -280 1 -290 19 -290 19 0 20 10 23 170 3 192 6 199 79
207 35 4 50 0 72 -17 l27 -21 0 -170 0 -169 25 0 25 0 0 161 c0 126 -3 168
-16 194 -29 61 -119 83 -181 45 l-33 -20 0 100 c0 93 -1 100 -20 100 -20 0
-20 -7 -20 -290z"/>
<path d="M7350 3500 c0 -25 4 -30 25 -30 21 0 25 5 25 30 0 25 -4 30 -25 30
-21 0 -25 -5 -25 -30z"/>
<path d="M9610 3500 c0 -25 4 -30 25 -30 21 0 25 5 25 30 0 25 -4 30 -25 30
-21 0 -25 -5 -25 -30z"/>
<path d="M10160 3430 l0 -100 -32 20 c-63 38 -153 19 -183 -40 -19 -37 -21
-263 -2 -299 33 -65 127 -87 187 -43 l31 23 19 -23 c19 -23 19 -21 20 270 0
285 0 292 -20 292 -19 0 -20 -7 -20 -100z m-33 -124 c28 -24 28 -25 28 -151 0
-121 -1 -128 -24 -146 -33 -27 -111 -26 -137 2 -16 17 -20 40 -22 131 -4 119
5 159 41 176 38 19 84 14 114 -12z"/>
<path d="M4833 3463 c-8 -3 -13 -24 -13 -54 l0 -49 -35 0 c-28 0 -35 -4 -35
-20 0 -16 7 -20 34 -20 l34 0 4 -147 c2 -109 7 -154 18 -171 19 -28 69 -52
110 -52 27 0 31 3 28 23 -2 17 -11 23 -38 25 -66 6 -70 18 -70 179 l0 143 55
0 c48 0 55 2 55 20 0 18 -7 20 -55 20 l-55 0 0 55 c0 55 -5 61 -37 48z"/>
<path d="M474 3360 c-64 -26 -86 -125 -39 -172 14 -14 56 -35 94 -47 78 -25
101 -45 101 -89 0 -41 -31 -62 -90 -62 -55 0 -86 20 -95 60 -8 38 -45 43 -45
6 0 -39 42 -90 85 -104 115 -38 226 50 185 148 -15 36 -39 53 -114 76 -100 32
-131 80 -81 129 46 47 136 27 152 -34 6 -22 12 -26 29 -22 20 6 21 9 10 41
-21 65 -118 100 -192 70z"/>
<path d="M1514 3351 c-48 -29 -56 -62 -52 -211 l3 -132 31 -27 c57 -51 154
-49 205 5 23 24 24 34 27 159 4 149 -5 183 -58 210 -41 21 -118 19 -156 -4z
m130 -32 c39 -18 48 -56 44 -177 -2 -91 -6 -114 -22 -131 -26 -28 -104 -29
-137 -2 -23 18 -24 25 -24 146 0 126 0 127 28 151 30 26 71 31 111 13z"/>
<path d="M2048 3354 c-49 -26 -58 -59 -58 -205 l0 -131 33 -33 c40 -40 95 -52
152 -33 69 23 118 128 60 128 -20 0 -25 -5 -25 -25 0 -41 -33 -65 -89 -65 -69
0 -93 30 -89 109 l3 56 113 3 112 3 0 55 c0 103 -46 154 -137 154 -26 -1 -60
-7 -75 -16z m136 -45 c22 -17 26 -28 26 -70 l0 -49 -90 0 -90 0 0 35 c0 44 17
80 44 93 35 17 82 13 110 -9z"/>
<path d="M2935 3360 c-11 -4 -30 -18 -42 -31 -24 -27 -41 -79 -25 -79 6 0 17
-3 26 -6 12 -5 16 0 16 19 0 33 43 67 85 67 18 0 44 -9 59 -21 22 -17 26 -28
26 -70 l0 -49 -61 0 c-104 0 -159 -44 -159 -128 0 -100 135 -155 211 -86 16
15 19 14 31 -5 7 -12 16 -21 20 -21 5 0 8 72 8 161 0 178 -8 212 -59 242 -30
18 -102 22 -136 7z m145 -270 c0 -78 -19 -100 -89 -100 -42 0 -53 4 -70 26
-12 15 -21 39 -21 54 0 15 9 39 21 54 19 24 27 26 90 26 l69 0 0 -60z"/>
<path d="M3459 3347 l-34 -23 -17 21 c-16 19 -17 10 -18 -187 0 -201 1 -208
20 -208 19 0 20 7 20 165 0 163 0 166 25 190 31 32 91 34 129 4 l26 -20 0
-170 0 -169 25 0 25 0 0 164 c0 153 -1 165 -23 197 -42 62 -116 78 -178 36z"/>
<path d="M5290 3357 c-13 -7 -35 -28 -47 -46 -21 -30 -23 -46 -23 -148 0 -173
29 -218 139 -217 83 0 111 23 136 112 5 19 3 22 -19 22 -19 0 -26 -5 -26 -19
0 -10 -9 -30 -21 -45 -17 -22 -28 -26 -70 -26 -71 0 -89 21 -89 105 l0 65 116
0 117 0 -6 65 c-7 78 -18 100 -60 125 -37 23 -109 26 -147 7z m135 -52 c19
-18 25 -35 25 -70 l0 -45 -90 0 -90 0 0 45 c0 35 6 52 25 70 34 35 96 35 130
0z"/>
<path d="M5809 3347 c-42 -28 -66 -88 -40 -99 26 -11 31 -9 31 12 0 30 44 70
77 70 70 0 103 -34 103 -105 l0 -35 -60 0 c-77 0 -124 -20 -150 -62 -26 -43
-25 -87 3 -129 40 -60 124 -73 182 -27 l25 20 20 -24 c19 -23 19 -23 20 145 0
186 -7 215 -60 242 -44 23 -111 19 -151 -8z m171 -251 c0 -77 -25 -106 -91
-106 -63 0 -89 23 -89 80 0 62 24 80 110 80 l70 0 0 -54z"/>
<path d="M6334 3351 c-48 -29 -56 -62 -52 -211 l3 -132 31 -27 c80 -72 215
-35 231 63 5 31 3 36 -15 36 -13 0 -22 -9 -27 -27 -12 -48 -33 -63 -90 -63
-79 0 -89 16 -93 152 -4 121 5 159 44 177 60 27 126 -1 139 -60 5 -21 12 -29
23 -27 42 8 14 96 -38 123 -41 21 -118 19 -156 -4z"/>
<path d="M7741 3349 c-32 -19 -36 -20 -47 -5 -6 9 -14 16 -18 16 -3 0 -6 -92
-6 -205 0 -198 1 -205 20 -205 19 0 20 7 20 155 0 91 4 164 11 178 23 50 100
62 146 23 l28 -24 3 -166 c3 -156 4 -166 23 -166 18 0 19 9 19 165 0 184 -7
213 -60 240 -41 21 -99 19 -139 -6z"/>
<path d="M8252 3351 c-39 -25 -52 -56 -52 -124 0 -36 6 -60 20 -77 17 -22 17
-26 3 -42 -20 -22 -19 -84 1 -107 15 -16 15 -21 0 -56 -20 -49 -7 -104 33
-134 29 -24 119 -29 156 -10 63 33 77 116 29 170 -26 29 -35 33 -106 38 -74 6
-96 17 -96 46 0 29 22 40 94 46 115 9 146 49 146 184 0 76 -10 93 -31 54 l-11
-21 -24 23 c-34 32 -117 37 -162 10z m152 -42 c22 -17 26 -28 26 -70 0 -63
-31 -99 -84 -99 -86 0 -127 63 -96 145 18 47 107 61 154 24z m0 -360 c32 -25
35 -70 6 -99 -25 -25 -95 -27 -128 -4 -22 15 -30 66 -14 90 25 37 96 44 136
13z"/>
<path d="M9133 3354 c-39 -20 -83 -104 -54 -104 5 0 16 -3 25 -6 12 -5 16 0
16 19 0 33 43 67 85 67 18 0 44 -9 59 -21 22 -17 26 -28 26 -70 l0 -49 -61 0
c-107 0 -159 -42 -159 -129 0 -99 135 -154 211 -85 16 15 19 14 31 -5 7 -12
16 -21 20 -21 5 0 8 72 8 161 0 183 -9 217 -65 243 -42 20 -101 20 -142 0z
m157 -264 c0 -78 -19 -100 -89 -100 -42 0 -53 4 -70 26 -12 15 -21 39 -21 54
0 15 9 39 21 54 19 24 27 26 90 26 l69 0 0 -60z"/>
<path d="M7350 3155 l0 -205 25 0 25 0 0 205 0 205 -25 0 -25 0 0 -205z"/>
<path d="M9610 3155 l0 -205 25 0 25 0 0 205 0 205 -25 0 -25 0 0 -205z"/>
<path d="M370 1410 l0 -1130 4930 0 4930 0 0 1130 0 1130 -55 0 -55 0 0 -1080
0 -1080 -4820 0 -4820 0 0 1080 0 1080 -55 0 -55 0 0 -1130z"/>
</g>
</svg>
